<?xml version="1.0" encoding="UTF-8" standalone="no"?>
<!-- Created with Inkscape (http://www.inkscape.org/) -->

<svg
   width="48"
   height="48"
   viewBox="0 0 12.7 12.7"
   version="1.1"
   id="svg1"
   inkscape:version="1.4.2 (ebf0e940d0, 2025-05-08)"
   sodipodi:docname="logo.svg"
   inkscape:export-filename="../app/favicon.png"
   inkscape:export-xdpi="32"
   inkscape:export-ydpi="32"
   xmlns:inkscape="http://www.inkscape.org/namespaces/inkscape"
   xmlns:sodipodi="http://sodipodi.sourceforge.net/DTD/sodipodi-0.dtd"
   xmlns:xlink="http://www.w3.org/1999/xlink"
   xmlns="http://www.w3.org/2000/svg"
   xmlns:svg="http://www.w3.org/2000/svg">
  <sodipodi:namedview
     id="namedview1"
     pagecolor="#ffffff"
     bordercolor="#eeeeee"
     borderopacity="1"
     inkscape:showpageshadow="0"
     inkscape:pageopacity="0"
     inkscape:pagecheckerboard="0"
     inkscape:deskcolor="#505050"
     inkscape:document-units="mm"
     inkscape:zoom="12.638879"
     inkscape:cx="20.769247"
     inkscape:cy="26.109911"
     inkscape:window-width="2560"
     inkscape:window-height="1516"
     inkscape:window-x="0"
     inkscape:window-y="0"
     inkscape:window-maximized="1"
     inkscape:current-layer="layer1"
     inkscape:export-bgcolor="#ffffff00" />
  <defs
     id="defs1">
    <linearGradient
       id="linearGradient52"
       inkscape:collect="always">
      <stop
         style="stop-color:#0012ff;stop-opacity:1;"
         offset="0"
         id="stop49" />
      <stop
         style="stop-color:#7f88ff;stop-opacity:1;"
         offset="0.48853961"
         id="stop50" />
      <stop
         style="stop-color:#2935ff;stop-opacity:1;"
         offset="0.48853961"
         id="stop51" />
      <stop
         style="stop-color:#0012ff;stop-opacity:1;"
         offset="1"
         id="stop52" />
    </linearGradient>
    <linearGradient
       id="linearGradient45"
       inkscape:collect="always">
      <stop
         style="stop-color:#0012ff;stop-opacity:1;"
         offset="0"
         id="stop42" />
      <stop
         style="stop-color:#0012ff;stop-opacity:0.49803922;"
         offset="0.50045472"
         id="stop43" />
      <stop
         style="stop-color:#3f4cff;stop-opacity:0.99089688;"
         offset="0.50045472"
         id="stop44" />
      <stop
         style="stop-color:#0012ff;stop-opacity:1;"
         offset="1"
         id="stop45" />
    </linearGradient>
    <linearGradient
       id="linearGradient34"
       inkscape:collect="always">
      <stop
         style="stop-color:#0012ff;stop-opacity:1;"
         offset="0"
         id="stop34" />
      <stop
         style="stop-color:#0012ff;stop-opacity:0.49803922;"
         offset="0.50045472"
         id="stop38" />
      <stop
         style="stop-color:#999fff;stop-opacity:1;"
         offset="0.50045472"
         id="stop39" />
      <stop
         style="stop-color:#ffffff;stop-opacity:1;"
         offset="1"
         id="stop35" />
    </linearGradient>
    <linearGradient
       id="linearGradient32"
       inkscape:collect="always">
      <stop
         style="stop-color:#0012ff;stop-opacity:1;"
         offset="0"
         id="stop32" />
      <stop
         style="stop-color:#7f88ff;stop-opacity:1;"
         offset="0.48853961"
         id="stop36" />
      <stop
         style="stop-color:#bfc3ff;stop-opacity:1;"
         offset="0.48853961"
         id="stop37" />
      <stop
         style="stop-color:#ffffff;stop-opacity:1;"
         offset="1"
         id="stop33" />
    </linearGradient>
    <rect
       x="20.017598"
       y="19.780235"
       width="9.8064513"
       height="12.117726"
       id="rect30" />
    <linearGradient
       id="linearGradient1"
       inkscape:collect="always">
      <stop
         style="stop-color:#000000;stop-opacity:1;"
         offset="0"
         id="stop1" />
      <stop
         style="stop-color:#9c9c9c;stop-opacity:1;"
         offset="0.48694816"
         id="stop3" />
      <stop
         style="stop-color:#3e3e3e;stop-opacity:1;"
         offset="0.48694816"
         id="stop30" />
      <stop
         style="stop-color:#4f4f4f;stop-opacity:1;"
         offset="1"
         id="stop2" />
    </linearGradient>
    <rect
       x="11.551657"
       y="7.6747313"
       width="32.123102"
       height="14.716495"
       id="rect1" />
    <linearGradient
       inkscape:collect="always"
       xlink:href="#linearGradient1"
       id="linearGradient2"
       x1="27.357422"
       y1="-3.5878906"
       x2="27.357422"
       y2="27.126953"
       gradientUnits="userSpaceOnUse"
       gradientTransform="matrix(0.33421507,0,0,0.33421507,-2.3784905,-0.47033978)" />
    <linearGradient
       inkscape:collect="always"
       xlink:href="#linearGradient52"
       id="linearGradient33"
       x1="24.460258"
       y1="20.989967"
       x2="24.460258"
       y2="29.25668"
       gradientUnits="userSpaceOnUse" />
    <linearGradient
       inkscape:collect="always"
       xlink:href="#linearGradient45"
       id="linearGradient35"
       x1="5.6182451"
       y1="9.6456423"
       x2="4.7868433"
       y2="11.929901"
       gradientUnits="userSpaceOnUse" />
    <rect
       x="20.017597"
       y="19.780235"
       width="9.8064508"
       height="12.117726"
       id="rect30-9" />
    <linearGradient
       inkscape:collect="always"
       xlink:href="#linearGradient1"
       id="linearGradient40"
       gradientUnits="userSpaceOnUse"
       gradientTransform="matrix(0.33421507,0,0,-0.33421507,-2.3784905,12.581526)"
       x1="27.357422"
       y1="-3.5878906"
       x2="27.357422"
       y2="27.126953" />
    <linearGradient
       inkscape:collect="always"
       xlink:href="#linearGradient32"
       id="linearGradient41"
       gradientUnits="userSpaceOnUse"
       x1="24.460258"
       y1="20.989967"
       x2="24.460258"
       y2="29.25668" />
    <linearGradient
       inkscape:collect="always"
       xlink:href="#linearGradient34"
       id="linearGradient42"
       gradientUnits="userSpaceOnUse"
       x1="5.6182451"
       y1="9.6456423"
       x2="4.7868433"
       y2="11.929901"
       gradientTransform="translate(4.8641503,-11.091478)" />
  </defs>
  <g
     inkscape:label="Layer 1"
     inkscape:groupmode="layer"
     id="layer1-9"
     transform="matrix(1,0,0,0.26622052,-0.13107159,8.9465795)"
     style="display:inline;opacity:0.126;mix-blend-mode:darken">
    <path
       d="M 4.554019,5.4805151 C 4.2822769,4.9963202 3.8672528,4.7344596 3.378117,4.7344596 c -0.8646338,0 -1.4822294,0.6670032 -1.4822294,1.6008077 0,0.9288638 0.612655,1.6008077 1.4575255,1.6008077 0.3458536,0 0.632418,-0.1086966 0.8695746,-0.3409127 C 4.4799076,7.3530647 4.6330712,7.0072112 4.6330712,6.6662985 4.6330712,6.3896157 4.5293151,6.0635254 4.3712107,5.8362502 4.2229877,5.628738 4.0451202,5.4953375 3.9166604,5.4953375 c -0.074111,0 -0.1284595,0.049408 -0.1284595,0.1185787 0,0.039526 0.00988,0.088934 0.019763,0.1482229 L 4.1686393,7.1900195 H 3.7338521 L 3.6547998,6.9133367 C 3.5955107,7.1208489 3.4571693,7.2344864 3.2694202,7.2344864 3.0520267,7.2344864 2.7852252,7.0912043 2.5925354,6.8787515 2.3899641,6.6465355 2.2763266,6.3500896 2.2763266,6.0437622 c 0,-0.2124529 0.054348,-0.3903204 0.1630452,-0.5138395 0.1086966,-0.1334006 0.2915052,-0.2223344 0.4545503,-0.2223344 0.1976306,0 0.335972,0.1037562 0.5336026,0.3903203 -0.00494,-0.039526 -0.00494,-0.06423 -0.00494,-0.098816 0,-0.1926897 0.1383414,-0.3211496 0.3409127,-0.3211496 0.1828083,0 0.3952612,0.088934 0.587951,0.251979 0.335976,0.2766828 0.5385474,0.7164108 0.5385474,1.1709612 0,0.8201669 -0.6966478,1.4871701 -1.5612817,1.4871701 -0.9733305,0 -1.7095043,-0.8102855 -1.7095043,-1.8824313 0,-1.0326197 0.7411147,-1.8231419 1.719386,-1.8231419 0.4002019,0 0.7707593,0.1383412 1.0622643,0.3952611 0.2124474,0.1877495 0.3606703,0.38538 0.454545,0.6027737 z M 3.3385909,7.031915 c 0.1383414,0 0.2223344,-0.1383413 0.2223344,-0.355735 0,-0.1976305 -0.074111,-0.503958 -0.1778675,-0.7411145 C 3.2644791,5.6633234 3.1113157,5.5052188 2.958152,5.5052188 c -0.1531636,0 -0.2371566,0.1383416 -0.2371566,0.3853798 0,0.2766827 0.1235191,0.6521808 0.3063274,0.9338045 0.083993,0.1334005 0.1976306,0.2075119 0.3112681,0.2075119 z"
       id="text4-6"
       style="font-size:3.82428px;font-family:C059;-inkscape-font-specification:C059;fill:#c83737;fill-opacity:1;stroke-width:0.617593"
       aria-label="@" />
    <path
       style="font-size:8px;font-family:C059;-inkscape-font-specification:C059;white-space:pre;fill:url(#linearGradient40);stroke-width:0.334215"
       d="M 3.190462,9.6003433 H 3.0888606 L 2.9819118,9.4425938 C 2.7867302,9.584301 2.6878026,9.6217331 2.5033158,9.6217331 2.2493124,9.6217331 2.032741,9.5147842 1.8536017,9.3008866 1.6824836,9.0976839 1.602272,8.8730913 1.602272,8.5976981 c 0,-0.5775236 0.3769946,-0.9866029 0.9037176,-0.9866029 0.4277953,0 0.7005148,0.2513298 0.7620103,0.7005148 L 3.1423351,8.333 C 3.0701441,7.9346156 2.8669418,7.7367603 2.5380742,7.7367603 c -0.3957106,0 -0.5828711,0.2727195 -0.5828711,0.8502431 0,0.3048042 0.040106,0.5053332 0.1310123,0.6657564 0.082885,0.1497284 0.2459823,0.2433086 0.4197742,0.2433086 0.1871604,0 0.3529311,-0.098928 0.4545325,-0.2700457 0.050801,-0.088233 0.088233,-0.1871605 0.152402,-0.3983844 h 0.1176437 z m 1.6951372,-0.00267 H 4.7866715 L 4.6797227,9.4372463 c -0.1283386,0.1203175 -0.296783,0.1844868 -0.4866171,0.1844868 -0.3529311,0 -0.5855448,-0.2219188 -0.5855448,-0.5588076 0,-0.2914355 0.1443809,-0.4358165 0.5374178,-0.5374178 l 0.2540035,-0.064169 c 0.1978553,-0.050801 0.2165713,-0.056148 0.2727195,-0.098928 0.080212,-0.061496 0.1229911,-0.1497283 0.1229911,-0.2540034 0,-0.1069489 -0.040106,-0.1951817 -0.1203174,-0.2700458 -0.088233,-0.074864 -0.1764656,-0.1042751 -0.3235202,-0.1042751 -0.1978553,0 -0.3395625,0.061496 -0.4652274,0.200529 C 3.7733314,8.0576066 3.7171833,8.1859451 3.6770775,8.3918216 h -0.11497 L 3.5728025,7.6298113 H 3.6770776 L 3.797395,7.8116243 C 3.9765342,7.6645696 4.1235888,7.6110952 4.3588763,7.6110952 c 0.3930369,0 0.6443666,0.22994 0.6443666,0.5882186 0,0.1684443 -0.053474,0.3074778 -0.1604232,0.4090792 -0.07219,0.069517 -0.1764656,0.11497 -0.3903632,0.1684444 l -0.2860881,0.07219 C 3.9284072,8.9105234 3.816111,9.0147985 3.816111,9.1778955 c 0,0.1871604 0.152402,0.315499 0.3796683,0.315499 0.1871604,0 0.3395625,-0.080212 0.4465113,-0.2326137 C 4.7198286,9.1511583 4.7706292,9.038862 4.8027139,8.9025023 h 0.11497 z m 2.6763916,0.00267 H 7.4603895 L 7.3534406,9.4425938 C 7.158259,9.584301 7.0593314,9.6217331 6.8748446,9.6217331 6.6208412,9.6217331 6.4042698,9.5147842 6.2251305,9.3008866 6.0540124,9.0976839 5.9738008,8.8730913 5.9738008,8.5976981 c 0,-0.5775236 0.3769946,-0.9866029 0.9037176,-0.9866029 0.4277953,0 0.7005148,0.2513298 0.7620103,0.7005148 L 7.5138639,8.333 C 7.4416739,7.9346156 7.2384706,7.7367603 6.909603,7.7367603 c -0.3957106,0 -0.5828711,0.2727195 -0.5828711,0.8502431 0,0.3048042 0.040106,0.5053332 0.1310123,0.6657564 0.082885,0.1497284 0.2459823,0.2433086 0.4197742,0.2433086 0.1871604,0 0.3529311,-0.098928 0.4545325,-0.2700457 0.050801,-0.088233 0.088233,-0.1871605 0.152402,-0.3983844 H 7.6020966 Z M 8.329349,9.6217331 7.8347107,9.5923221 V 9.4773522 H 7.965723 C 8.064651,9.4746822 8.0780192,9.4586362 8.0780192,9.3436661 V 7.9800687 7.8544038 c -0.00267,-0.040106 -0.00535,-0.056148 -0.016042,-0.069517 -0.018716,-0.024063 -0.069517,-0.034758 -0.1844867,-0.037432 H 7.8587745 V 7.6512008 H 8.5512678 V 7.747455 H 8.5325517 C 8.3534125,7.7528024 8.329349,7.766171 8.329349,7.862425 V 7.9800687 Z M 9.7277062,7.632485 10.214323,7.651201 v 0.11497 h -0.06684 C 9.9924075,7.771521 9.9790389,7.787561 9.9790389,7.9613526 V 8.8971548 L 9.4763764,8.8677438 v -0.11497 h 0.1363598 c 0.1016014,-0.00267 0.11497,-0.018716 0.11497,-0.133686 V 8.2902203 c 0,-0.1524021 -0.016042,-0.2433086 -0.056148,-0.3288677 -0.056148,-0.1203174 -0.163097,-0.1871604 -0.2941093,-0.1871604 -0.082885,0 -0.1524021,0.029411 -0.1871605,0.082885 C 9.15553,7.9078782 9.1501825,7.9346154 9.1501825,8.08167 V 8.8971548 L 8.6822814,8.8677438 v -0.11497 h 0.1016014 c 0.1016014,-0.00267 0.11497,-0.018716 0.11497,-0.133686 V 8.0415641 c 0,-0.1363597 0.010695,-0.1978553 0.050801,-0.2593509 0.07219,-0.1096225 0.200529,-0.1711181 0.3609523,-0.1711181 0.1764655,0 0.2994567,0.07219 0.4171004,0.2433086 z m 1.0133408,1.9892481 -0.45988,-0.029411 V 9.4773522 h 0.09358 c 0.101601,-0.00267 0.11497,-0.018716 0.11497,-0.1336861 V 8.3035889 c 0,-0.3716472 -0.01604,-0.57485 -0.04813,-0.68982 h 0.101601 l 0.131013,0.2085502 c 0.109622,-0.1443809 0.235287,-0.2112239 0.401058,-0.2112239 0.331541,0 0.57485,0.2834144 0.57485,0.6711039 0,0.3850158 -0.224593,0.6550615 -0.545439,0.6550615 -0.163097,0 -0.262025,-0.056148 -0.363626,-0.2085502 z m 0.315499,-0.8208322 c 0.200529,0 0.312825,-0.1951816 0.312825,-0.545439 0,-0.3395625 -0.109623,-0.5293967 -0.304804,-0.5293967 -0.211224,0 -0.336889,0.1951816 -0.336889,0.5240492 0,0.3582786 0.11497,0.5507865 0.328868,0.5507865 z"
       id="text1-3"
       aria-label="CS Club&#10;"
       sodipodi:nodetypes="cccscssccsscscccccccsscccscsccccccsscccsscccccccscssccsscsccccccccscccccccccsccccccsccccsscscsccccsscsccccccsscccsssccsssss" />
    <text
       xml:space="preserve"
       transform="matrix(0.51466136,0,0,-0.51466136,-6.5696323,17.849691)"
       id="text30-8"
       style="font-style:normal;font-variant:normal;font-weight:normal;font-stretch:normal;font-size:10.6667px;font-family:C059;-inkscape-font-specification:C059;text-align:start;writing-mode:lr-tb;direction:ltr;white-space:pre;shape-inside:url(#rect30-9);display:inline;fill:url(#linearGradient41);fill-opacity:1"><tspan
         x="20.017578"
         y="28.973993"
         id="tspan1">H</tspan></text>
    <text
       xml:space="preserve"
       style="font-style:normal;font-variant:normal;font-weight:normal;font-stretch:normal;font-size:3.90184px;font-family:C059;-inkscape-font-specification:C059;text-align:start;writing-mode:lr-tb;direction:ltr;text-anchor:start;fill:url(#linearGradient42);fill-opacity:1;stroke-width:0.365796"
       x="8.6756897"
       y="1.1048592"
       id="text31-5"
       transform="matrix(0.91580439,0.40162459,0.40162459,-0.91580439,0,0)"><tspan
         sodipodi:role="line"
         id="tspan31-6"
         style="fill:url(#linearGradient42);stroke-width:0.365796"
         x="8.6756897"
         y="1.1048592">C</tspan></text>
  </g>
  <g
     inkscape:label="Layer 1"
     inkscape:groupmode="layer"
     id="layer1"
     style="display:inline">
    <path
       d="M 4.554019,6.6306712 C 4.2822769,7.1148661 3.8672528,7.3767267 3.378117,7.3767267 c -0.8646338,0 -1.4822294,-0.6670032 -1.4822294,-1.6008077 0,-0.9288638 0.612655,-1.6008077 1.4575255,-1.6008077 0.3458536,0 0.632418,0.1086966 0.8695746,0.3409127 0.2569199,0.2420976 0.4100835,0.5879511 0.4100835,0.9288638 0,0.2766828 -0.1037561,0.6027731 -0.2618605,0.8300483 -0.148223,0.2075122 -0.3260905,0.3409127 -0.4545503,0.3409127 -0.074111,0 -0.1284595,-0.049408 -0.1284595,-0.1185787 0,-0.039526 0.00988,-0.088934 0.019763,-0.1482229 L 4.1686393,4.9211668 H 3.7338521 L 3.6547998,5.1978496 C 3.5955107,4.9903374 3.4571693,4.8766999 3.2694202,4.8766999 c -0.2173935,0 -0.484195,0.1432821 -0.6768848,0.3557349 -0.2025713,0.232216 -0.3162088,0.5286619 -0.3162088,0.8349893 0,0.2124529 0.054348,0.3903204 0.1630452,0.5138395 0.1086966,0.1334006 0.2915052,0.2223344 0.4545503,0.2223344 0.1976306,0 0.335972,-0.1037562 0.5336026,-0.3903203 -0.00494,0.039526 -0.00494,0.06423 -0.00494,0.098816 0,0.1926897 0.1383414,0.3211496 0.3409127,0.3211496 0.1828083,0 0.3952612,-0.088934 0.587951,-0.251979 0.335976,-0.2766828 0.5385474,-0.7164108 0.5385474,-1.1709612 0,-0.8201669 -0.6966478,-1.4871701 -1.5612817,-1.4871701 -0.9733305,0 -1.7095043,0.8102855 -1.7095043,1.8824313 0,1.0326197 0.7411147,1.8231419 1.719386,1.8231419 0.4002019,0 0.7707593,-0.1383412 1.0622643,-0.3952611 0.2124474,-0.1877495 0.3606703,-0.38538 0.454545,-0.6027737 z M 3.3385909,5.0792713 c 0.1383414,0 0.2223344,0.1383413 0.2223344,0.355735 0,0.1976305 -0.074111,0.503958 -0.1778675,0.7411145 -0.1185787,0.2717421 -0.2717421,0.4298467 -0.4249058,0.4298467 -0.1531636,0 -0.2371566,-0.1383416 -0.2371566,-0.3853798 0,-0.2766827 0.1235191,-0.6521808 0.3063274,-0.9338045 0.083993,-0.1334005 0.1976306,-0.2075119 0.3112681,-0.2075119 z"
       id="text4"
       style="font-size:3.82428px;font-family:C059;-inkscape-font-specification:C059;fill:#c83737;fill-opacity:1;stroke-width:0.617593"
       aria-label="@" />
    <path
       style="font-size:8px;font-family:C059;-inkscape-font-specification:C059;white-space:pre;fill:url(#linearGradient2);stroke-width:0.334215"
       d="M 3.190462,2.510843 H 3.0888606 L 2.9819118,2.6685925 C 2.7867302,2.5268853 2.6878026,2.4894532 2.5033158,2.4894532 2.2493124,2.4894532 2.032741,2.5964021 1.8536017,2.8102997 1.6824836,3.0135024 1.602272,3.238095 1.602272,3.5134882 c 0,0.5775236 0.3769946,0.9866029 0.9037176,0.9866029 0.4277953,0 0.7005148,-0.2513298 0.7620103,-0.7005148 L 3.1423351,3.7781863 C 3.0701441,4.1765707 2.8669418,4.374426 2.5380742,4.374426 c -0.3957106,0 -0.5828711,-0.2727195 -0.5828711,-0.8502431 0,-0.3048042 0.040106,-0.5053332 0.1310123,-0.6657564 0.082885,-0.1497284 0.2459823,-0.2433086 0.4197742,-0.2433086 0.1871604,0 0.3529311,0.098928 0.4545325,0.2700457 0.050801,0.088233 0.088233,0.1871605 0.152402,0.3983844 h 0.1176437 z m 1.6951372,0.00267 H 4.7866715 L 4.6797227,2.67394 C 4.5513841,2.5536225 4.3829397,2.4894532 4.1931056,2.4894532 c -0.3529311,0 -0.5855448,0.2219188 -0.5855448,0.5588076 0,0.2914355 0.1443809,0.4358165 0.5374178,0.5374178 l 0.2540035,0.064169 c 0.1978553,0.050801 0.2165713,0.056148 0.2727195,0.098928 0.080212,0.061496 0.1229911,0.1497283 0.1229911,0.2540034 0,0.1069489 -0.040106,0.1951817 -0.1203174,0.2700458 -0.088233,0.074864 -0.1764656,0.1042751 -0.3235202,0.1042751 -0.1978553,0 -0.3395625,-0.061496 -0.4652274,-0.200529 C 3.7733314,4.0535797 3.7171833,3.9252412 3.6770775,3.7193647 h -0.11497 L 3.5728024,4.481375 H 3.6770775 L 3.7973949,4.299562 c 0.1791393,0.1470547 0.3261939,0.2005291 0.5614814,0.2005291 0.3930369,0 0.6443666,-0.22994 0.6443666,-0.5882186 0,-0.1684443 -0.053474,-0.3074778 -0.1604232,-0.4090792 -0.07219,-0.069517 -0.1764656,-0.11497 -0.3903632,-0.1684444 L 4.1663684,3.2621584 C 3.9284072,3.2006629 3.816111,3.0963878 3.816111,2.9332908 c 0,-0.1871604 0.152402,-0.315499 0.3796683,-0.315499 0.1871604,0 0.3395625,0.080212 0.4465113,0.2326137 0.077538,0.1096225 0.1283386,0.2219188 0.1604233,0.3582785 h 0.11497 z M 7.5619908,2.510843 H 7.4603895 L 7.3534406,2.6685925 C 7.158259,2.5268853 7.0593314,2.4894532 6.8748446,2.4894532 c -0.2540034,0 -0.4705748,0.1069489 -0.6497141,0.3208465 -0.1711181,0.2032027 -0.2513297,0.4277953 -0.2513297,0.7031885 0,0.5775236 0.3769946,0.9866029 0.9037176,0.9866029 0.4277953,0 0.7005148,-0.2513298 0.7620103,-0.7005148 L 7.5138639,3.7781863 C 7.4416739,4.1765707 7.2384706,4.374426 6.909603,4.374426 c -0.3957106,0 -0.5828711,-0.2727195 -0.5828711,-0.8502431 0,-0.3048042 0.040106,-0.5053332 0.1310123,-0.6657564 0.082885,-0.1497284 0.2459823,-0.2433086 0.4197742,-0.2433086 0.1871604,0 0.3529311,0.098928 0.4545325,0.2700457 0.050801,0.088233 0.088233,0.1871605 0.152402,0.3983844 H 7.6020966 Z M 8.329349,2.4894532 7.8347107,2.5188642 V 2.6338341 H 7.965723 c 0.098928,0.00267 0.1122962,0.018716 0.1122962,0.1336861 v 1.3635974 0.1256649 c -0.00267,0.040106 -0.00535,0.056148 -0.016042,0.069517 -0.018716,0.024063 -0.069517,0.034758 -0.1844867,0.037432 h -0.018716 v 0.096254 H 8.5512678 V 4.3637313 H 8.5325517 C 8.3534125,4.3583839 8.329349,4.3450153 8.329349,4.2487613 V 4.1311176 Z m 1.3983572,1.9892481 0.4866168,-0.018716 v -0.11497 H 10.14748 C 9.9924045,4.3396678 9.9790359,4.3236255 9.9790359,4.1498337 V 3.2140315 l -0.5026595,0.029411 v 0.11497 h 0.1363598 c 0.1016014,0.00267 0.11497,0.018716 0.11497,0.133686 V 3.820966 c 0,0.1524021 -0.016042,0.2433086 -0.056148,0.3288677 -0.056148,0.1203174 -0.163097,0.1871604 -0.2941093,0.1871604 -0.082885,0 -0.1524021,-0.029411 -0.1871605,-0.082885 C 9.15553,4.2033081 9.1501825,4.1765709 9.1501825,4.0295163 V 3.2140315 l -0.4679011,0.029411 v 0.11497 h 0.1016014 c 0.1016014,0.00267 0.11497,0.018716 0.11497,0.133686 v 0.5775237 c 0,0.1363597 0.010695,0.1978553 0.050801,0.2593509 0.07219,0.1096225 0.200529,0.1711181 0.3609523,0.1711181 0.1764655,0 0.2994567,-0.07219 0.4171004,-0.2433086 z m 1.0133408,-1.9892481 -0.45988,0.029411 v 0.1149699 h 0.09358 c 0.101601,0.00267 0.11497,0.018716 0.11497,0.1336861 v 1.0400772 c 0,0.3716472 -0.01604,0.57485 -0.04813,0.68982 h 0.101601 l 0.131013,-0.2085502 c 0.109622,0.1443809 0.235287,0.2112239 0.401058,0.2112239 0.331541,0 0.57485,-0.2834144 0.57485,-0.6711039 0,-0.3850158 -0.224593,-0.6550615 -0.545439,-0.6550615 -0.163097,0 -0.262025,0.056148 -0.363626,0.2085502 z m 0.315499,0.8208322 c 0.200529,0 0.312825,0.1951816 0.312825,0.545439 0,0.3395625 -0.109623,0.5293967 -0.304804,0.5293967 -0.211224,0 -0.336889,-0.1951816 -0.336889,-0.5240492 0,-0.3582786 0.11497,-0.5507865 0.328868,-0.5507865 z"
       id="text1"
       aria-label="CS Club&#10;" />
    <text
       xml:space="preserve"
       transform="matrix(0.51466136,0,0,0.51466136,-6.5696323,-5.7385051)"
       id="text30"
       style="font-style:normal;font-variant:normal;font-weight:normal;font-stretch:normal;font-size:10.6667px;font-family:C059;-inkscape-font-specification:C059;text-align:start;writing-mode:lr-tb;direction:ltr;white-space:pre;shape-inside:url(#rect30);display:inline;fill:url(#linearGradient33);fill-opacity:1"><tspan
         x="20.017578"
         y="28.973993"
         id="tspan2">H</tspan></text>
    <text
       xml:space="preserve"
       style="font-style:normal;font-variant:normal;font-weight:normal;font-stretch:normal;font-size:3.90184px;font-family:C059;-inkscape-font-specification:C059;text-align:start;writing-mode:lr-tb;direction:ltr;text-anchor:start;fill:url(#linearGradient35);stroke-width:0.365796"
       x="3.8115392"
       y="12.196337"
       id="text31"
       transform="rotate(-23.679779)"><tspan
         sodipodi:role="line"
         id="tspan31"
         style="fill:url(#linearGradient35);stroke-width:0.365796"
         x="3.8115392"
         y="12.196337">C</tspan></text>
  </g>
</svg>
